0
SECTION
2
HEADER
9
$INSUNITS
70
4
9
$ACADVER
1
AC1014
9
$HANDSEED
5
FFFF
0
ENDSEC
0
SECTION
2
TABLES
0
TABLE
2
VPORT
5
8
100
AcDbSymbolTable
0
ENDTAB
0
TABLE
2
LTYPE
5
5
100
AcDbSymbolTable
0
LTYPE
5
14
100
AcDbSymbolTableRecord
100
AcDbLinetypeTableRecord
2
BYBLOCK
70
0
0
LTYPE
5
15
100
AcDbSymbolTableRecord
100
AcDbLinetypeTableRecord
2
BYLAYER
70
0
0
ENDTAB
0
TABLE
2
LAYER
5
2
100
AcDbSymbolTable
70
2
0
LAYER
5
50
100
AcDbSymbolTableRecord
100
AcDbLayerTableRecord
2
0
70
0
6
CONTINUOUS
0
ENDTAB
0
TABLE
2
STYLE
5
3
100
AcDbSymbolTable
70
1
0
STYLE
5
11
100
AcDbSymbolTableRecord
100
AcDbTextStyleTableRecord
2
STANDARD
70
0
0
ENDTAB
0
TABLE
2
VIEW
5
6
100
AcDbSymbolTable
70
0
0
ENDTAB
0
TABLE
2
UCS
5
7
100
AcDbSymbolTable
70
0
0
ENDTAB
0
TABLE
2
APPID
5
9
100
AcDbSymbolTable
70
2
0
APPID
5
12
100
AcDbSymbolTableRecord
100
AcDbRegAppTableRecord
2
ACAD
70
0
0
ENDTAB
0
TABLE
2
DIMSTYLE
5
A
100
AcDbSymbolTable
70
1
0
ENDTAB
0
TABLE
2
BLOCK_RECORD
5
1
100
AcDbSymbolTable
70
1
0
BLOCK_RECORD
5
1F
100
AcDbSymbolTableRecord
100
AcDbBlockTableRecord
2
*MODEL_SPACE
0
BLOCK_RECORD
5
1B
100
AcDbSymbolTableRecord
100
AcDbBlockTableRecord
2
*PAPER_SPACE
0
ENDTAB
0
ENDSEC
0
SECTION
2
BLOCKS
0
BLOCK
5
20
100
AcDbEntity
100
AcDbBlockBegin
2
*MODEL_SPACE
0
ENDBLK
5
21
100
AcDbEntity
100
AcDbBlockEnd
0
BLOCK
5
1C
100
AcDbEntity
100
AcDbBlockBegin
2
*PAPER_SPACE
0
ENDBLK
5
1D
100
AcDbEntity
100
AcDbBlockEnd
0
ENDSEC
0
SECTION
2
ENTITIES
0
LINE
5
100
100
AcDbEntity
8
0
100
AcDbLine
10
148.26416570642303
20
-23.226151836484963
30
0
11
145.53697982783095
21
-17.873748180692179
31
0
0
SPLINE
5
101
100
AcDbEntity
8
0
100
AcDbSpline
70
0
71
3
72
11
73
7
74
0
42
0.000000001
43
0.0000000001
44
0.0000000001
40
0.76103071082326024
40
0.76103071082326024
40
0.76103071082326024
40
0.76103071082326024
40
0.86921382037955364
40
0.86921382037955364
40
0.86921382037955364
40
0.88422686012260399
40
0.88422686012260399
40
0.88422686012260399
40
0.88422686012260399
10
145.53697982783095
20
-17.873748180692189
30
0
10
141.54159948276046
20
-20.169786272197939
30
0
10
137.51769829375289
20
-22.050535224841241
30
0
10
133.7473439527306
20
-23.429636766152626
30
0
10
133.22411551347324
20
-23.621020673810005
30
0
10
132.70477235249248
20
-23.803209109140482
30
0
10
132.19096323465052
20
-23.97576586823768
30
0
0
LINE
5
102
100
AcDbEntity
8
0
100
AcDbLine
10
132.19096323465055
20
-23.97576586823768
30
0
11
141.39493022668097
21
-4.2377949576867424
31
0
0
LINE
5
103
100
AcDbEntity
8
0
100
AcDbLine
10
141.39493022668097
20
-4.2377949576867424
30
0
11
163.98012052366468
21
-48.563726703379814
31
0
0
LINE
5
104
100
AcDbEntity
8
0
100
AcDbLine
10
163.98012052366468
20
-48.563726703379814
30
0
11
181.77902180385411
21
-55.396084767986167
31
0
0
LINE
5
105
100
AcDbEntity
8
0
100
AcDbLine
10
181.77902180385411
20
-55.396084767986167
30
0
11
147.81584687814555
21
0.88180180663700369
31
0
0
LINE
5
106
100
AcDbEntity
8
0
100
AcDbLine
10
147.81584687814555
20
0.88180180663700369
30
0
11
226.2914257478069
21
48.24107513351413
31
0
0
LINE
5
107
100
AcDbEntity
8
0
100
AcDbLine
10
226.2914257478069
20
48.24107513351413
30
0
11
199.19144723943316
21
43.462617745868343
31
0
0
LINE
5
108
100
AcDbEntity
8
0
100
AcDbLine
10
199.19144723943316
20
43.462617745868343
30
0
11
147.64402075680991
21
9.1634229310656501
31
0
0
LINE
5
109
100
AcDbEntity
8
0
100
AcDbLine
10
147.64402075680991
20
9.1634229310656501
30
0
11
157.22334890523339
21
29.706358439191956
31
0
0
SPLINE
5
110
100
AcDbEntity
8
0
100
AcDbSpline
70
0
71
3
72
14
73
10
74
0
42
0.000000001
43
0.0000000001
44
0.0000000001
40
0.030113277910141924
40
0.030113277910141924
40
0.030113277910141924
40
0.030113277910141924
40
0.091028876352572785
40
0.091028876352572785
40
0.091028876352572785
40
0.17547551873068767
40
0.17547551873068767
40
0.17547551873068767
40
0.20854277395622495
40
0.20854277395622495
40
0.20854277395622495
40
0.20854277395622495
10
157.22334890523339
20
29.706358439191956
30
0
10
159.18510195072227
20
29.775999863678923
30
0
10
160.83165872914725
20
29.602505233397153
30
0
10
162.18123862354017
20
29.264237807498855
30
0
10
164.05214679183467
20
28.795301294136099
30
0
10
165.37145531086654
20
28.053707053837957
30
0
10
166.51341860844889
20
26.992482014483979
30
0
10
166.96058371479225
20
26.576932050153562
30
0
10
167.38310071556162
20
26.100758887278623
30
0
10
167.77700084356553
20
25.562585372190291
30
0
0
LINE
5
111
100
AcDbEntity
8
0
100
AcDbLine
10
167.77700084356553
20
25.562585372190291
30
0
11
172.77558024962337
21
28.888595234262393
31
0
0
SPLINE
5
112
100
AcDbEntity
8
0
100
AcDbSpline
70
4
71
5
72
17
73
11
74
0
42
0.000000001
43
0.0000000001
44
0.0000000001
40
-0.21154704768302571
40
-0.21154704768302571
40
-0.21154704768302571
40
-0.21154704768302571
40
-0.21154704768302571
40
-0.21154704768302571
40
-0.20000000000000001
40
-0.16
40
-0.12
40
-0.080000000000000002
40
-0.040000000000000001
40
0
40
0
40
0
40
0
40
0
40
0
41
1
41
1
41
1
41
1
41
1
41
1
41
1
41
1
41
1
41
1
41
1
10
172.77558024961976
20
28.888595234267594
30
0
10
172.65129893101459
20
29.064102653012345
30
0
10
172.08571425651908
20
29.837124806719942
30
0
10
170.99564875371721
20
31.125385165974102
30
0
10
169.20966058131097
20
32.741969004240993
30
0
10
166.46682673157531
20
34.362656488621887
30
0
10
162.68433271303729
20
35.514921486025067
30
0
10
159.19405320559446
20
35.831791266583942
30
0
10
156.31724539306984
20
35.728262724282203
30
0
10
154.2845151330713
20
35.507988431740813
30
0
10
153.23943559577432
20
35.360038275261815
30
0
0
LINE
5
113
100
AcDbEntity
8
0
100
AcDbLine
10
153.2394355957743
20
35.360038275261815
30
0
11
150.94437587086964
21
35.170669978525588
31
0
0
LINE
5
114
100
AcDbEntity
8
0
100
AcDbLine
10
150.94437587086964
20
35.170669978525588
30
0
11
119.47053807600261
21
-32.325192987562133
31
0
0
LINE
5
115
100
AcDbEntity
8
0
100
AcDbLine
10
119.47053807600261
20
-32.325192987562133
30
0
11
121.6772939139276
21
-32.325192987562133
31
0
0
SPLINE
5
116
100
AcDbEntity
8
0
100
AcDbSpline
70
4
71
5
72
17
73
11
74
0
42
0.000000001
43
0.0000000001
44
0.0000000001
40
-1
40
-1
40
-1
40
-1
40
-1
40
-1
40
-0.9600000000000003
40
-0.92000000000000026
40
-0.88000000000000023
40
-0.84000000000000019
40
-0.80000000000000016
40
-0.76322935918695833
40
-0.76322935918695833
40
-0.76322935918695833
40
-0.76322935918695833
40
-0.76322935918695833
40
-0.76322935918695833
41
1
41
1
41
1
41
1
41
1
41
1
41
1
41
1
41
1
41
1
41
1
10
121.6772939139276
20
-32.325192987562133
30
0
10
122.48814836165715
20
-32.260878753143608
30
0
10
124.12648587453729
20
-32.091026390392486
30
0
10
126.63387682373286
20
-31.712576761960968
30
0
10
130.07710470997401
20
-30.959984606115547
30
0
10
134.54339117131005
20
-29.604180729292256
30
0
10
139.08149068616967
20
-27.863167644883148
30
0
10
142.78298682337385
20
-26.164292558867999
30
0
10
145.56328842422329
20
-24.733201079731199
30
0
10
147.39048940477207
20
-23.724425328813091
30
0
10
148.264165706423
20
-23.226151836484959
30
0
0
SPLINE
5
117
100
AcDbEntity
8
0
100
AcDbSpline
70
0
71
3
72
14
73
10
74
0
42
0.000000001
43
0.0000000001
44
0.0000000001
40
0.39635216474134455
40
0.39635216474134455
40
0.39635216474134455
40
0.39635216474134455
40
0.48007080998600132
40
0.48007080998600132
40
0.48007080998600132
40
0.58700997336571037
40
0.58700997336571037
40
0.58700997336571037
40
0.65084173842061765
40
0.65084173842061765
40
0.65084173842061765
40
0.65084173842061765
10
170.66627210693758
20
11.751843121824816
30
0
10
170.39027746935844
20
9.3845523328158524
30
0
10
169.76373278932627
20
7.0127200792770132
30
0
10
168.73786849910917
20
4.6512330938032909
30
0
10
167.42746663323643
20
1.6347552014457496
30
0
10
165.42673409008444
20
-1.4166634468196211
30
0
10
162.70880572675952
20
-4.4477344375320707
30
0
10
161.08647991794601
20
-6.2569744318353493
30
0
10
159.21022218191243
20
-8.0486351934820739
30
0
10
157.16673139549403
20
-9.774386316434148
30
0
0
LINE
5
118
100
AcDbEntity
8
0
100
AcDbLine
10
157.16673139549405
20
-9.774386316434148
30
0
11
160.3071648741448
21
-14.978168338970001
31
0
0
SPLINE
5
119
100
AcDbEntity
8
0
100
AcDbSpline
70
4
71
5
72
20
73
14
74
0
42
0.000000001
43
0.0000000001
44
0.0000000001
40
-0.65787888283024598
40
-0.65787888283024598
40
-0.65787888283024598
40
-0.65787888283024598
40
-0.65787888283024598
40
-0.65787888283024598
40
-0.64000000000000001
40
-0.59999999999999998
40
-0.55999999999999994
40
-0.51999999999999991
40
-0.47999999999999993
40
-0.43999999999999995
40
-0.39999999999999997
40
-0.35999999999999999
40
-0.3544473486274391
40
-0.3544473486274391
40
-0.3544473486274391
40
-0.3544473486274391
40
-0.3544473486274391
40
-0.3544473486274391
41
1
41
1
41
1
41
1
41
1
41
1
41
1
41
1
41
1
41
1
41
1
41
1
41
1
41
1
10
160.3071648741448
20
-14.978168338969979
30
0
10
160.68723412582273
20
-14.665363738727262
30
0
10
161.90618673694246
20
-13.645097753201018
30
0
10
163.90168385501372
20
-11.879267639243004
30
0
10
166.53103102030786
20
-9.3055125628081417
30
0
10
169.52407121776415
20
-5.8577412541656715
30
0
10
172.28583185521939
20
-1.8548244015334383
30
0
10
174.40537389539384
20
2.2482226807314611
30
0
10
175.87955494535876
20
6.430242523630727
30
0
10
176.58076058813035
20
9.9342345502393918
30
0
10
176.81735181838204
20
12.594197028026709
30
0
10
176.84565340981158
20
14.395779129133807
30
0
10
176.82345299523004
20
15.349508502959832
30
0
10
176.82019380159494
20
15.465676950990426
30
0
0
LINE
5
120
100
AcDbEntity
8
0
100
AcDbLine
10
176.82019380159494
20
15.465676950990428
30
0
11
170.66627210693758
21
11.751843121824816
31
0
0
ENDSEC
0
SECTION
2
OBJECTS
0
DICTIONARY
5
C
100
AcDbDictionary
3
ACAD_GROUP
350
D
3
ACAD_MLINESTYLE
350
17
0
DICTIONARY
5
D
100
AcDbDictionary
0
DICTIONARY
5
1A
330
C
100
AcDbDictionary
0
DICTIONARY
5
17
100
AcDbDictionary
0
ENDSEC
0
EOF
